<svg width="31" height="31" viewBox="0 0 31 31" fill="none" xmlns="http://www.w3.org/2000/svg">
<path d="M29.5774 4.74511L24.1826 2.49755C23.5908 2.25106 22.9121 2.25112 22.3203 2.49761L19.7301 3.57649C19.4986 3.673 19.3891 3.9388 19.4855 4.17034C19.582 4.40187 19.8478 4.51146 20.0794 4.41495L22.6696 3.336C23.0392 3.18197 23.4635 3.18191 23.8334 3.33594L29.228 5.58338C29.7527 5.80226 30.0918 6.29444 30.0918 6.83712V26.2575C30.0918 27.0127 29.4431 27.6271 28.6459 27.6271H27.9097C27.6588 27.6271 27.4556 27.8303 27.4556 28.0812C27.4556 28.332 27.6588 28.5353 27.9097 28.5353H28.6459C29.9439 28.5353 31 27.5135 31 26.2575V6.83712C31 5.92674 30.4416 5.1056 29.5774 4.74511Z" fill="white"/>
<path d="M25.9304 27.6272H18.3003C18.6145 27.2701 18.7865 26.817 18.7865 26.3375C18.7865 25.859 18.6133 25.4205 18.3266 25.0804C18.5074 24.9882 18.6747 24.8676 18.8225 24.7199C19.1913 24.351 19.3944 23.8605 19.3944 23.3386C19.3944 22.8412 19.2072 22.3868 18.8999 22.0416C19.052 21.9554 19.1937 21.8486 19.3206 21.7216C19.6895 21.3528 19.8926 20.8623 19.8926 20.3403C19.8926 19.8443 19.7066 19.3912 19.401 19.0462C19.5557 18.9594 19.6998 18.8513 19.829 18.7224C20.1977 18.3529 20.4006 17.8625 20.4006 17.3414C20.4006 16.264 19.5244 15.3876 18.4473 15.3876H16.4111V6.83712C16.4111 6.29438 16.7502 5.80219 17.2747 5.58343L18.1006 5.23953C18.3321 5.14314 18.4417 4.87734 18.3453 4.64574C18.2488 4.41421 17.983 4.3045 17.7515 4.40107L16.9253 4.7451C16.0612 5.10554 15.5029 5.92674 15.5029 6.83712V15.3876H13.6055C14.2374 13.391 14.1836 11.3073 13.4463 8.88887C13.3342 8.52262 13.1114 8.20893 12.8017 7.9817C12.4938 7.75586 12.129 7.6364 11.7465 7.6364C11.2538 7.6364 10.7956 7.83317 10.4563 8.19046C10.1172 8.54769 9.94452 9.01535 9.97007 9.50724C10.1121 12.2377 8.85256 13.1775 7.10935 14.4784C6.53543 14.9066 5.90816 15.375 5.29168 15.9494V15.3542C5.29168 15.1034 5.08842 14.9001 4.83757 14.9001H0.454102C0.203256 14.9001 0 15.1034 0 15.3542V28.2332C0 28.484 0.203256 28.6873 0.454102 28.6873H4.8377C5.08854 28.6873 5.2918 28.484 5.2918 28.2332V27.0908C6.15429 27.1728 6.78422 27.3447 7.39622 27.8138C7.79801 28.1217 8.29329 28.2913 8.7908 28.2913H16.7994C17.1266 28.4508 17.4893 28.5353 17.857 28.5353H25.9304C26.1812 28.5353 26.3845 28.3321 26.3845 28.0812C26.3845 27.8304 26.1812 27.6272 25.9304 27.6272ZM7.94872 27.0929C7.09246 26.4368 6.17736 26.2544 5.2918 26.178V20.8756C5.2918 20.6247 5.08854 20.4215 4.8377 20.4215C4.58685 20.4215 4.38359 20.6247 4.38359 20.8756V27.7791H0.908203V15.8084H4.38359V18.897C4.38359 19.1478 4.58685 19.3511 4.8377 19.3511C5.08854 19.3511 5.2918 19.1478 5.2918 18.897V17.2395C6.05142 16.4012 6.86481 15.7942 7.65264 15.2063C9.39694 13.9048 11.0444 12.6753 10.8772 9.46013C10.8647 9.21946 10.9492 8.99065 11.1152 8.81585C11.2812 8.64093 11.5055 8.54466 11.7467 8.54466C11.9346 8.54466 12.1136 8.60321 12.2646 8.71401C12.4153 8.82457 12.5236 8.97691 12.5778 9.15425C13.3288 11.6176 13.317 13.6901 12.5408 15.6766C12.4862 15.8163 12.5042 15.974 12.5888 16.0979C12.6734 16.2219 12.8137 16.296 12.9638 16.296H18.4474C19.0237 16.296 19.4925 16.7651 19.4925 17.3416C19.4925 17.6205 19.3837 17.8831 19.1869 18.0804C18.9889 18.2779 18.7264 18.3867 18.4474 18.3867H16.582C16.3311 18.3867 16.1279 18.5899 16.1279 18.8408C16.1279 19.0916 16.3311 19.2949 16.582 19.2949H17.9394C18.5157 19.2949 18.9845 19.7639 18.9845 20.3406C18.9845 20.6199 18.8759 20.8824 18.6785 21.0797C18.4812 21.277 18.2187 21.3856 17.9394 21.3856H16.582C16.3311 21.3856 16.1279 21.5889 16.1279 21.8397C16.1279 22.0906 16.3311 22.2938 16.582 22.2938H17.4411C18.0174 22.2938 18.4862 22.7626 18.4862 23.3389C18.4862 23.6181 18.3775 23.8806 18.1802 24.078C17.9825 24.2757 17.72 24.3845 17.4411 24.3845H16.8332H16.0836C15.8328 24.3845 15.6295 24.5878 15.6295 24.8386C15.6295 25.0895 15.8328 25.2927 16.0836 25.2927H16.8332C17.4095 25.2927 17.8783 25.7615 17.8783 26.3378C17.8783 26.617 17.7695 26.8798 17.5727 27.077C17.3883 27.261 17.0969 27.3784 16.8789 27.3823C16.8638 27.3826 8.7908 27.3834 8.7908 27.3834C8.49194 27.3831 8.19284 27.2801 7.94872 27.0929Z" fill="white"/>
<path d="M24.8904 7.03887C24.8904 6.08465 24.114 5.30832 23.1598 5.30832C22.2056 5.30832 21.4293 6.08465 21.4293 7.03887C21.4293 7.99309 22.2056 8.76942 23.1598 8.76942C24.114 8.76942 24.8904 7.99309 24.8904 7.03887ZM22.3375 7.03887C22.3375 6.58543 22.7064 6.21652 23.1598 6.21652C23.6132 6.21652 23.9822 6.58543 23.9822 7.03887C23.9822 7.49231 23.6132 7.86122 23.1598 7.86122C22.7064 7.86122 22.3375 7.49237 22.3375 7.03887Z" fill="white"/>
<path d="M23.4435 22.5334H22.6291C22.2001 22.5334 21.8511 22.1844 21.8511 21.7554C21.8511 21.5045 21.6479 21.3013 21.397 21.3013C21.1462 21.3013 20.9429 21.5045 20.9429 21.7554C20.9429 22.6695 21.6741 23.4154 22.5822 23.4404V24.4454C22.5822 24.6962 22.7854 24.8995 23.0363 24.8995C23.2871 24.8995 23.4904 24.6962 23.4904 24.4454V23.4404C24.3985 23.4154 25.1297 22.6695 25.1297 21.7554V21.1267C25.1297 20.5435 24.757 20.0306 24.2023 19.8503L22.151 19.184C21.9716 19.1256 21.8511 18.9599 21.8511 18.7713V17.8712C21.8511 17.5228 22.1346 17.2393 22.4829 17.2393H23.5897C23.9381 17.2393 24.2215 17.5228 24.2215 17.8712C24.2215 18.122 24.4248 18.3253 24.6756 18.3253C24.9265 18.3253 25.1297 18.122 25.1297 17.8712C25.1297 17.022 24.4389 16.3311 23.5897 16.3311H23.4904V15.3274C23.4904 15.0765 23.2871 14.8733 23.0363 14.8733C22.7854 14.8733 22.5822 15.0765 22.5822 15.3274V16.3311H22.4829C21.6338 16.3311 20.9429 17.0219 20.9429 17.8712V18.7713C20.9429 19.3546 21.3155 19.8675 21.8703 20.0477L23.9215 20.714C24.1009 20.7723 24.2214 20.9382 24.2214 21.1267V21.7554C24.2215 22.1844 23.8725 22.5334 23.4435 22.5334Z" fill="#FFCC29"/>
</svg>
